<svg width="75" height="75" viewBox="0 0 75 75" fill="none" xmlns="http://www.w3.org/2000/svg">
<g clip-path="url(#clip0_10_248)">
<path d="M23.5373 6.25C24.9942 6.25 26.1722 7.33045 26.1722 8.66185V13.5344C28.5074 13.4925 31.1284 13.4925 34.077 13.4925H48.1298C51.0784 13.4925 53.6959 13.4925 56.0346 13.5344V8.66185C56.0346 7.33045 57.2126 6.25 58.6695 6.25C60.1264 6.25 61.3044 7.33045 61.3044 8.66185V13.7435C66.3582 14.1129 69.6797 15.0261 72.1194 17.2567C74.5592 19.4908 75.5525 22.53 75.9568 27.162V30.6474H6.25V27.162C6.6543 22.53 7.64762 19.4943 10.0874 17.2567C12.5271 15.0261 15.8451 14.1129 20.9024 13.7435V8.66185C20.9024 7.33045 22.0839 6.25 23.5373 6.25Z" fill="#5B5B58"/>
<path opacity="0.5" d="M75.9568 48.074V41.1034C75.9568 38.1792 75.9115 32.9651 75.8662 30.6473H6.27096C6.22565 32.9651 6.27096 38.1792 6.27096 41.1034V48.074C6.27096 61.2173 6.27096 67.7906 10.3488 71.8719C14.4371 75.9568 21.007 75.9568 34.1467 75.9568H48.0881C61.2278 75.9568 67.7942 75.9568 71.879 71.8719C75.9568 67.7906 75.9568 61.2173 75.9568 48.074Z" fill="#E6B300"/>
<path fill-rule="evenodd" clip-rule="evenodd" d="M64.6294 56.7875C63.5996 56.7875 62.5799 56.9903 61.6284 57.3844C60.677 57.7785 59.8125 58.3561 59.0843 59.0843C58.3561 59.8125 57.7785 60.677 57.3844 61.6285C56.9903 62.5799 56.7874 63.5997 56.7874 64.6295C56.7874 65.6593 56.9903 66.6791 57.3844 67.6305C57.7785 68.5819 58.3561 69.4464 59.0843 70.1746C59.8125 70.9028 60.677 71.4805 61.6284 71.8746C62.5799 72.2687 63.5996 72.4715 64.6294 72.4715C66.7093 72.4715 68.7039 71.6453 70.1746 70.1746C71.6452 68.704 72.4715 66.7093 72.4715 64.6295C72.4715 62.5497 71.6452 60.555 70.1746 59.0843C68.7039 57.6137 66.7093 56.7875 64.6294 56.7875ZM51.5594 64.6295C51.56 62.5917 52.0372 60.5822 52.9527 58.7617C53.8682 56.9411 55.1967 55.3598 56.8322 54.1441C58.4676 52.9284 60.3647 52.1119 62.3719 51.7599C64.3791 51.4079 66.4407 51.5302 68.3923 52.1168C70.3438 52.7035 72.1311 53.7384 73.6115 55.1388C75.0918 56.5393 76.2242 58.2664 76.9182 60.1824C77.6122 62.0984 77.8485 64.1502 77.6084 66.1738C77.3682 68.1974 76.6582 70.1368 75.5351 71.8372L80.418 76.7236C80.6749 76.9629 80.8808 77.2515 81.0237 77.5722C81.1666 77.8928 81.2434 78.239 81.2496 78.5899C81.2558 78.9409 81.1912 79.2896 81.0598 79.615C80.9283 79.9405 80.7326 80.2362 80.4844 80.4844C80.2362 80.7326 79.9405 80.9283 79.615 81.0598C79.2895 81.1913 78.9409 81.2558 78.5899 81.2496C78.2389 81.2435 77.8928 81.1666 77.5721 81.0238C77.2515 80.8809 76.9629 80.6749 76.7236 80.4181L71.8371 75.5351C69.8671 76.8375 67.581 77.5817 65.2218 77.6887C62.8627 77.7958 60.5186 77.2616 58.4387 76.143C56.3589 75.0244 54.6209 73.3632 53.4096 71.3359C52.1983 69.3087 51.5589 66.9911 51.5594 64.6295Z" fill="#5B5B58"/>
</g>
<defs>
<clipPath id="clip0_10_248">
<rect width="75" height="75" fill="white"/>
</clipPath>
</defs>
</svg>
